<?xml version="1.0"?><svg id="Balloon" style="enable-background:new 0 0 32 32;" version="1.1" viewBox="0 0 32 32" xml:space="preserve" xmlns="http://www.w3.org/2000/svg" xmlns:xlink="http://www.w3.org/1999/xlink"><style type="text/css">
	.st0{fill:#55C1FA;}
	.st1{fill:#2A80AD;}
</style><g><path class="st0" d="M4,12.157V28h7.15v-7.7c0-0.553,0.448-1,1-1h7.7c0.553,0,1,0.447,1,1V28H28V12.157L16,4.2L4,12.157z"/><path class="st1" d="M29.553,10.787l-13-8.62c-0.335-0.222-0.771-0.222-1.105,0l-13,8.62C2.168,10.972,2,11.285,2,11.62V29   c0,0.553,0.448,1,1,1h9.15c0.552,0,1-0.447,1-1v-7.7h5.7V29c0,0.553,0.447,1,1,1H29c0.553,0,1-0.447,1-1V11.62   C30,11.285,29.832,10.972,29.553,10.787z M28,28h-7.15v-7.7c0-0.553-0.447-1-1-1h-7.7c-0.552,0-1,0.447-1,1V28H4V12.157L16,4.2   l12,7.957V28z"/></g></svg>